<svg width="192" height="192" viewBox="0 0 192 192" xmlns="http://www.w3.org/2000/svg">
  <defs>
    <linearGradient id="calendarGradient192" x1="0%" y1="0%" x2="100%" y2="100%">
      <stop offset="0%" style="stop-color:#4A90B2;stop-opacity:1" />
      <stop offset="100%" style="stop-color:#357A9B;stop-opacity:1" />
    </linearGradient>
    <linearGradient id="highlightGradient192" x1="0%" y1="0%" x2="100%" y2="100%">
      <stop offset="0%" style="stop-color:#FF9A56;stop-opacity:1" />
      <stop offset="100%" style="stop-color:#FF7A2B;stop-opacity:1" />
    </linearGradient>
  </defs>
  
  <!-- Calendar body -->
  <rect x="24" y="36" width="144" height="120" rx="18" ry="18" fill="url(#calendarGradient192)" stroke="#2C5F7A" stroke-width="3"/>
  
  <!-- Calendar rings -->
  <rect x="54" y="12" width="18" height="48" rx="9" ry="9" fill="url(#highlightGradient192)"/>
  <rect x="120" y="12" width="18" height="48" rx="9" ry="9" fill="url(#highlightGradient192)"/>
  
  <!-- Calendar grid -->
  <rect x="42" y="72" width="108" height="66" rx="6" ry="6" fill="#7ABDE6" opacity="0.7"/>
  
  <!-- Calendar squares -->
  <rect x="48" y="78" width="18" height="15" rx="2" fill="#A8D1EA"/>
  <rect x="75" y="78" width="18" height="15" rx="2" fill="#A8D1EA"/>
  <rect x="48" y="99" width="18" height="15" rx="2" fill="#A8D1EA"/>
  <rect x="75" y="99" width="18" height="15" rx="2" fill="#A8D1EA"/>
  <rect x="102" y="99" width="18" height="15" rx="2" fill="#A8D1EA"/>
  <rect x="48" y="120" width="18" height="15" rx="2" fill="#A8D1EA"/>
  
  <!-- Highlight indicator -->
  <circle cx="114" cy="87" r="12" fill="url(#highlightGradient192)" opacity="0.8"/>
</svg>