<svg width="512" height="512" viewBox="0 0 512 512" xmlns="http://www.w3.org/2000/svg">
  <defs>
    <linearGradient id="calendarGradient512" x1="0%" y1="0%" x2="100%" y2="100%">
      <stop offset="0%" style="stop-color:#4A90B2;stop-opacity:1" />
      <stop offset="100%" style="stop-color:#357A9B;stop-opacity:1" />
    </linearGradient>
    <linearGradient id="highlightGradient512" x1="0%" y1="0%" x2="100%" y2="100%">
      <stop offset="0%" style="stop-color:#FF9A56;stop-opacity:1" />
      <stop offset="100%" style="stop-color:#FF7A2B;stop-opacity:1" />
    </linearGradient>
  </defs>
  
  <!-- Calendar body -->
  <rect x="64" y="96" width="384" height="320" rx="48" ry="48" fill="url(#calendarGradient512)" stroke="#2C5F7A" stroke-width="8"/>
  
  <!-- Calendar rings -->
  <rect x="144" y="32" width="48" height="128" rx="24" ry="24" fill="url(#highlightGradient512)"/>
  <rect x="320" y="32" width="48" height="128" rx="24" ry="24" fill="url(#highlightGradient512)"/>
  
  <!-- Calendar grid -->
  <rect x="112" y="192" width="288" height="176" rx="16" ry="16" fill="#7ABDE6" opacity="0.7"/>
  
  <!-- Calendar squares -->
  <rect x="128" y="208" width="48" height="40" rx="5" fill="#A8D1EA"/>
  <rect x="200" y="208" width="48" height="40" rx="5" fill="#A8D1EA"/>
  <rect x="128" y="264" width="48" height="40" rx="5" fill="#A8D1EA"/>
  <rect x="200" y="264" width="48" height="40" rx="5" fill="#A8D1EA"/>
  <rect x="272" y="264" width="48" height="40" rx="5" fill="#A8D1EA"/>
  <rect x="128" y="320" width="48" height="40" rx="5" fill="#A8D1EA"/>
  
  <!-- Highlight indicator -->
  <circle cx="304" cy="232" r="32" fill="url(#highlightGradient512)" opacity="0.8"/>
</svg>